<svg height="512pt" viewBox="0 0 512 512" width="512pt" xmlns="http://www.w3.org/2000/svg"><path d="m120 430h-60c-8.285156 0-15-6.714844-15-15v-114c0-35.839844 29.160156-65 65-65s65 29.160156 65 65v74c0 3.976562-1.582031 7.792969-4.394531 10.605469l-40 40c-2.8125 2.8125-6.628907 4.394531-10.605469 4.394531zm40-55h.011719zm0 0" fill="#0093ff"/><path d="m110 236v194h10c3.976562 0 7.792969-1.582031 10.605469-4.394531l40-40c2.8125-2.8125 4.394531-6.628907 4.394531-10.605469v-74c0-35.839844-29.160156-65-65-65zm0 0" fill="#007def"/><path d="m110 266c-30.328125 0-55-24.671875-55-55s24.671875-55 55-55 55 24.671875 55 55-24.671875 55-55 55zm0 0" fill="#ffbeaa"/><path d="m165 211c0-30.328125-24.671875-55-55-55v110c30.328125 0 55-24.671875 55-55zm0 0" fill="#faa68f"/><path d="m497 512h-482c-8.285156 0-15-6.714844-15-15v-82c0-8.285156 6.714844-15 15-15h98.785156l275.609375-275.605469c2.8125-2.8125 6.628907-4.394531 10.605469-4.394531h97c8.285156 0 15 6.714844 15 15v362c0 8.285156-6.714844 15-15 15zm0 0" fill="#d7f0f5"/><path d="m497 120h-97c-3.976562 0-7.792969 1.582031-10.605469 4.394531l-133.394531 133.390625v254.214844h241c8.285156 0 15-6.714844 15-15v-362c0-8.285156-6.714844-15-15-15zm0 0" fill="#c3e1eb"/><path d="m216 120c3.839844 0 7.679688-1.464844 10.605469-4.394531l64.394531-64.390625v23.785156c0 8.285156 6.714844 15 15 15s15-6.714844 15-15v-60c0-8.285156-6.714844-15-15-15h-60c-8.285156 0-15 6.714844-15 15s6.714844 15 15 15h23.785156l-64.390625 64.394531c-5.859375 5.859375-5.859375 15.355469 0 21.210938 2.925781 2.929687 6.765625 4.394531 10.605469 4.394531zm0 0" fill="#55506e"/><path d="m205.394531 115.605469c2.925781 2.929687 6.765625 4.394531 10.605469 4.394531s7.679688-1.464844 10.605469-4.394531l64.394531-64.390625v23.785156c0 8.285156 6.714844 15 15 15s15-6.714844 15-15v-60c0-4.140625-1.679688-7.890625-4.394531-10.605469zm0 0" fill="#47435c"/></svg>